<svg id="Capa_1" enable-background="new 0 0 512 512" height="512" viewBox="0 0 512 512" width="512" xmlns="http://www.w3.org/2000/svg"><g><path d="m346.068 65.963v60.012h-30.006v-60.012c0-2.761-2.24-5.001-5.001-5.001h-110.072c-2.761 0-5.001 2.24-5.001 5.001v60.012h-30.006v-60.012c0-19.304 15.703-35.007 35.007-35.007h110.071c19.305 0 35.008 15.703 35.008 35.007z" fill="#ac5743"/><path d="m346.068 65.963v60.012h-30.006v-60.012c0-2.761-2.24-5.001-5.001-5.001h-55.061v-30.006h55.061c19.304 0 35.007 15.703 35.007 35.007z" fill="#823931"/><path d="m75.965 120.974c-41.898.03-75.965 34.116-75.965 76.014v269.053c0 8.282 6.721 15.003 15.003 15.003h60.962l5.001-4.616v-350.53z" fill="#823931"/><path d="m436.985 120.974-5.901 5.232v350.53l5.001 4.309h60.912c8.282 0 15.003-6.721 15.003-15.003v-270.054c0-41.368-33.647-75.014-75.015-75.014z" fill="#583227"/><path d="m100.97 125.282v349.708l5.001 6.054h300.108l5.001-4.001v-350.838l-5.001-5.231h-300.108z" fill="#823931"/><path d="m411.08 126.205v350.838l-5.001 4.001h-150.079v-360.07h150.079z" fill="#583227"/><path d="m75.965 120.974h30.006v360.07h-30.006z" fill="#ac5743"/><path d="m406.079 120.974h30.006v360.07h-30.006z" fill="#ac5743"/><path d="m316.062 174.621-25.811 25.811c-2.814 2.814-4.394 6.629-4.394 10.609v89.968c0 8.286 6.717 15.003 15.003 15.003h60.111c8.286 0 15.003-6.717 15.003-15.003v-89.968c0-3.979-1.581-7.795-4.394-10.609l-25.512-25.512z" fill="#cee6f4"/><path d="m245.894 212.119-82.29-25.461c-7.564-2.338-15.598 1.896-17.938 9.461l-16.955 54.799c-2.341 7.566 1.895 15.597 9.461 17.939 85.73 26.294 82.559 26.101 86.528 26.101 6.274 0 11.838-4.084 13.7-10.102l16.955-54.799c2.341-7.566-1.894-15.597-9.461-17.938z" fill="#f7ba57"/><path d="m286.865 342.396c-13.749-25.329-45.675-35-71.177-21.55l-.218.115c-26.083 13.757-35.882 46.111-21.814 72.028 13.729 25.291 45.639 35.018 71.165 21.556l.226-.119c.001-.001.003-.002.004-.003 26.084-13.758 35.881-46.111 21.814-72.027z" fill="#e85b8e"/><path d="m293.297 367.612c0 18.974-10.242 37.317-28.246 46.809l-.23.12c-2.871 1.51-5.821 2.731-8.822 3.671v-101.04c12.763 3.951 24.045 12.663 30.866 25.225 4.362 8.031 6.432 16.683 6.432 25.215z" fill="#db1f79"/><path d="m346.068 120.974v60.068c0 8.345-6.809 15.086-15.153 15.002-8.227-.082-14.853-6.775-14.853-15.002v-60.068z" fill="#f0faff"/></g></svg>